<svg width="392" height="58" viewBox="0 0 392 58" fill="none" xmlns="http://www.w3.org/2000/svg">
<path d="M1.5 29C1.5 13.8122 13.8122 1.5 29 1.5H363C378.188 1.5 390.5 13.8122 390.5 29C390.5 44.1878 378.188 56.5 363 56.5H29C13.8122 56.5 1.5 44.1878 1.5 29Z" fill="white" stroke="#03318C" stroke-width="3"/>
<path d="M19.4658 26.464C18.9858 26.464 18.6445 26.3627 18.4418 26.16C18.2498 25.9573 18.1538 25.712 18.1538 25.424V25.04C18.1538 24.752 18.2498 24.5067 18.4418 24.304C18.6445 24.1013 18.9858 24 19.4658 24C19.9458 24 20.2818 24.1013 20.4738 24.304C20.6765 24.5067 20.7778 24.752 20.7778 25.04V25.424C20.7778 25.712 20.6765 25.9573 20.4738 26.16C20.2818 26.3627 19.9458 26.464 19.4658 26.464ZM15.7218 34.384H18.4418V29.36H15.7218V27.744H20.4898V34.384H23.0178V36H15.7218V34.384ZM24.3396 36V27.744H26.0356V28.88H26.1316C26.2596 28.5173 26.4409 28.208 26.6756 27.952C26.9209 27.6853 27.2622 27.552 27.6996 27.552C28.1156 27.552 28.4462 27.6747 28.6916 27.92C28.9369 28.1547 29.0969 28.4907 29.1716 28.928H29.2516C29.3902 28.5547 29.5929 28.2347 29.8596 27.968C30.1369 27.6907 30.5262 27.552 31.0276 27.552C31.6356 27.552 32.0729 27.7707 32.3396 28.208C32.6062 28.6453 32.7396 29.2907 32.7396 30.144V36H31.0596V30.384C31.0596 29.904 30.9902 29.568 30.8516 29.376C30.7236 29.184 30.5262 29.088 30.2596 29.088C30.0142 29.088 29.8062 29.168 29.6356 29.328C29.4756 29.488 29.3956 29.7333 29.3956 30.064V36H27.6996V30.384C27.6996 29.904 27.6356 29.568 27.5076 29.376C27.3796 29.184 27.1822 29.088 26.9156 29.088C26.6596 29.088 26.4462 29.168 26.2756 29.328C26.1156 29.488 26.0356 29.7333 26.0356 30.064V36H24.3396ZM41.1813 36C40.68 36 40.2906 35.8773 40.0133 35.632C39.7466 35.376 39.5866 35.024 39.5333 34.576H39.4533C39.304 35.088 39.0106 35.488 38.5733 35.776C38.136 36.0533 37.5973 36.192 36.9573 36.192C36.1253 36.192 35.464 35.9733 34.9733 35.536C34.4826 35.0987 34.2373 34.4907 34.2373 33.712C34.2373 32.048 35.4586 31.216 37.9013 31.216H39.3573V30.672C39.3573 30.1493 39.2293 29.7547 38.9733 29.488C38.7173 29.2213 38.3013 29.088 37.7253 29.088C37.2026 29.088 36.7813 29.1893 36.4613 29.392C36.1413 29.5947 35.8693 29.856 35.6453 30.176L34.4773 29.184C34.7333 28.7253 35.144 28.3413 35.7093 28.032C36.2853 27.712 37.0266 27.552 37.9333 27.552C39.0213 27.552 39.8693 27.808 40.4773 28.32C41.096 28.8213 41.4053 29.5733 41.4053 30.576V34.464H42.3813V36H41.1813ZM37.6453 34.784C38.136 34.784 38.5413 34.672 38.8613 34.448C39.192 34.2133 39.3573 33.8987 39.3573 33.504V32.4H37.9493C36.8293 32.4 36.2693 32.752 36.2693 33.456V33.776C36.2693 34.1067 36.392 34.3573 36.6373 34.528C36.8826 34.6987 37.2186 34.784 37.6453 34.784ZM52.1511 36.864C52.1511 37.728 51.7884 38.3627 51.0631 38.768C50.3484 39.184 49.2284 39.392 47.7031 39.392C46.9564 39.392 46.3324 39.344 45.8311 39.248C45.3297 39.1627 44.9244 39.0347 44.6151 38.864C44.3164 38.6933 44.1031 38.4853 43.9751 38.24C43.8471 38.0053 43.7831 37.7387 43.7831 37.44C43.7831 36.9813 43.9164 36.6293 44.1831 36.384C44.4497 36.1387 44.8231 35.9573 45.3031 35.84V35.712C44.9831 35.6053 44.7271 35.456 44.5351 35.264C44.3537 35.072 44.2631 34.8053 44.2631 34.464C44.2631 34.0587 44.3964 33.7547 44.6631 33.552C44.9404 33.3493 45.3031 33.1947 45.7511 33.088V33.008C45.2604 32.7733 44.8764 32.4427 44.5991 32.016C44.3217 31.5893 44.1831 31.072 44.1831 30.464C44.1831 30.0053 44.2631 29.6 44.4231 29.248C44.5937 28.8853 44.8284 28.5813 45.1271 28.336C45.4364 28.08 45.8044 27.888 46.2311 27.76C46.6577 27.6213 47.1324 27.552 47.6551 27.552C48.2097 27.552 48.7111 27.6267 49.1591 27.776V27.424C49.1591 27.104 49.2604 26.8373 49.4631 26.624C49.6764 26.4107 49.9697 26.304 50.3431 26.304H51.8311V27.84H49.8791V28.112C50.2844 28.3573 50.5937 28.6773 50.8071 29.072C51.0311 29.456 51.1431 29.92 51.1431 30.464C51.1431 30.9227 51.0577 31.3333 50.8871 31.696C50.7271 32.0587 50.4924 32.3627 50.1831 32.608C49.8844 32.8533 49.5164 33.0453 49.0791 33.184C48.6524 33.312 48.1777 33.376 47.6551 33.376C47.4417 33.376 47.2337 33.3707 47.0311 33.36C46.8391 33.3387 46.6524 33.3013 46.4711 33.248C46.3217 33.3013 46.1777 33.3867 46.0391 33.504C45.9004 33.6213 45.8311 33.776 45.8311 33.968C45.8311 34.224 45.9537 34.384 46.1991 34.448C46.4444 34.5013 46.7377 34.528 47.0791 34.528H48.9511C49.5271 34.528 50.0177 34.5867 50.4231 34.704C50.8284 34.8107 51.1591 34.9707 51.4151 35.184C51.6711 35.3867 51.8577 35.632 51.9751 35.92C52.0924 36.208 52.1511 36.5227 52.1511 36.864ZM50.2311 37.008C50.2311 36.7627 50.1297 36.5653 49.9271 36.416C49.7351 36.2773 49.3724 36.208 48.8391 36.208H45.9911C45.6711 36.3893 45.5111 36.656 45.5111 37.008C45.5111 37.296 45.6284 37.536 45.8631 37.728C46.1084 37.92 46.5191 38.016 47.0951 38.016H48.4231C49.6284 38.016 50.2311 37.68 50.2311 37.008ZM47.6551 32.032C48.1777 32.032 48.5617 31.9093 48.8071 31.664C49.0524 31.408 49.1751 31.0773 49.1751 30.672V30.256C49.1751 29.8507 49.0524 29.5253 48.8071 29.28C48.5617 29.024 48.1777 28.896 47.6551 28.896C47.1431 28.896 46.7644 29.024 46.5191 29.28C46.2737 29.5253 46.1511 29.8507 46.1511 30.256V30.672C46.1511 31.0773 46.2737 31.408 46.5191 31.664C46.7644 31.9093 47.1431 32.032 47.6551 32.032ZM57.5208 36.192C56.8595 36.192 56.2728 36.0907 55.7608 35.888C55.2488 35.6853 54.8168 35.3973 54.4648 35.024C54.1235 34.6507 53.8621 34.2027 53.6808 33.68C53.4995 33.1467 53.4088 32.5493 53.4088 31.888C53.4088 31.216 53.4995 30.6133 53.6808 30.08C53.8728 29.5467 54.1395 29.0933 54.4808 28.72C54.8221 28.3467 55.2328 28.0587 55.7128 27.856C56.2035 27.6533 56.7528 27.552 57.3608 27.552C57.9581 27.552 58.4968 27.6533 58.9768 27.856C59.4568 28.048 59.8621 28.3253 60.1928 28.688C60.5341 29.0507 60.7955 29.488 60.9768 30C61.1581 30.512 61.2488 31.0773 61.2488 31.696V32.368H55.4568V32.576C55.4568 33.1733 55.6435 33.6587 56.0168 34.032C56.3901 34.3947 56.9128 34.576 57.5848 34.576C58.0968 34.576 58.5341 34.4747 58.8968 34.272C59.2701 34.0587 59.5795 33.7813 59.8248 33.44L60.9928 34.608C60.6941 35.0453 60.2568 35.4187 59.6808 35.728C59.1155 36.0373 58.3955 36.192 57.5208 36.192ZM57.3768 29.056C56.8008 29.056 56.3368 29.2373 55.9848 29.6C55.6328 29.9627 55.4568 30.4427 55.4568 31.04V31.152H59.2008V31.008C59.2008 30.4107 59.0355 29.936 58.7048 29.584C58.3848 29.232 57.9421 29.056 57.3768 29.056ZM63.3226 36V27.744H65.3706V29.2H65.4506C65.6319 28.752 65.9092 28.368 66.2826 28.048C66.6666 27.7173 67.1946 27.552 67.8666 27.552C68.6772 27.552 69.3332 27.824 69.8346 28.368C70.3466 28.9013 70.6026 29.6693 70.6026 30.672V36H68.5546V30.96C68.5546 29.7653 68.0372 29.168 67.0026 29.168C66.7892 29.168 66.5866 29.1947 66.3946 29.248C66.2026 29.3013 66.0266 29.3867 65.8666 29.504C65.7172 29.6107 65.5946 29.744 65.4986 29.904C65.4132 30.064 65.3706 30.256 65.3706 30.48V36H63.3226ZM76.5163 36.176C75.9616 36.176 75.567 36.0587 75.3323 35.824C75.0976 35.5893 74.9803 35.3013 74.9803 34.96V34.48C74.9803 34.1387 75.0976 33.8507 75.3323 33.616C75.567 33.3813 75.9616 33.264 76.5163 33.264C77.071 33.264 77.4656 33.3813 77.7003 33.616C77.935 33.8507 78.0523 34.1387 78.0523 34.48V34.96C78.0523 35.3013 77.935 35.5893 77.7003 35.824C77.4656 36.0587 77.071 36.176 76.5163 36.176ZM86.1101 36.176C85.5554 36.176 85.1607 36.0587 84.9261 35.824C84.6914 35.5893 84.5741 35.3013 84.5741 34.96V34.48C84.5741 34.1387 84.6914 33.8507 84.9261 33.616C85.1607 33.3813 85.5554 33.264 86.1101 33.264C86.6647 33.264 87.0594 33.3813 87.2941 33.616C87.5287 33.8507 87.6461 34.1387 87.6461 34.48V34.96C87.6461 35.3013 87.5287 35.5893 87.2941 35.824C87.0594 36.0587 86.6647 36.176 86.1101 36.176ZM95.7038 36.176C95.1491 36.176 94.7545 36.0587 94.5198 35.824C94.2851 35.5893 94.1678 35.3013 94.1678 34.96V34.48C94.1678 34.1387 94.2851 33.8507 94.5198 33.616C94.7545 33.3813 95.1491 33.264 95.7038 33.264C96.2585 33.264 96.6531 33.3813 96.8878 33.616C97.1225 33.8507 97.2398 34.1387 97.2398 34.48V34.96C97.2398 35.3013 97.1225 35.5893 96.8878 35.824C96.6531 36.0587 96.2585 36.176 95.7038 36.176Z" fill="#03318C"/>
</svg>
