<svg width="472" height="58" viewBox="0 0 472 58" fill="none" xmlns="http://www.w3.org/2000/svg">
<path d="M1.5 29C1.5 13.8122 13.8122 1.5 29 1.5H443C458.188 1.5 470.5 13.8122 470.5 29C470.5 44.1878 458.188 56.5 443 56.5H29C13.8122 56.5 1.5 44.1878 1.5 29Z" fill="white" stroke="#03318C" stroke-width="3"/>
<path d="M18.2424 36V27.744H20.2904V29.2H20.3704C20.5517 28.752 20.8291 28.368 21.2024 28.048C21.5864 27.7173 22.1144 27.552 22.7864 27.552C23.5971 27.552 24.2531 27.824 24.7544 28.368C25.2664 28.9013 25.5224 29.6693 25.5224 30.672V36H23.4744V30.96C23.4744 29.7653 22.9571 29.168 21.9224 29.168C21.7091 29.168 21.5064 29.1947 21.3144 29.248C21.1224 29.3013 20.9464 29.3867 20.7864 29.504C20.6371 29.6107 20.5144 29.744 20.4184 29.904C20.3331 30.064 20.2904 30.256 20.2904 30.48V36H18.2424ZM31.4361 36.192C30.8068 36.192 30.2415 36.0907 29.7401 35.888C29.2495 35.6853 28.8281 35.3973 28.4761 35.024C28.1348 34.6507 27.8681 34.1973 27.6761 33.664C27.4948 33.1307 27.4041 32.5333 27.4041 31.872C27.4041 31.2107 27.4948 30.6133 27.6761 30.08C27.8681 29.5467 28.1348 29.0933 28.4761 28.72C28.8281 28.3467 29.2495 28.0587 29.7401 27.856C30.2415 27.6533 30.8068 27.552 31.4361 27.552C32.0548 27.552 32.6148 27.6533 33.1161 27.856C33.6175 28.0587 34.0388 28.3467 34.3801 28.72C34.7321 29.0933 34.9988 29.5467 35.1801 30.08C35.3721 30.6133 35.4681 31.2107 35.4681 31.872C35.4681 32.5333 35.3721 33.1307 35.1801 33.664C34.9988 34.1973 34.7321 34.6507 34.3801 35.024C34.0388 35.3973 33.6175 35.6853 33.1161 35.888C32.6148 36.0907 32.0548 36.192 31.4361 36.192ZM31.4361 34.624C32.0228 34.624 32.4868 34.448 32.8281 34.096C33.1695 33.7333 33.3401 33.2053 33.3401 32.512V31.232C33.3401 30.5387 33.1695 30.016 32.8281 29.664C32.4868 29.3013 32.0228 29.12 31.4361 29.12C30.8495 29.12 30.3855 29.3013 30.0441 29.664C29.7028 30.016 29.5321 30.5387 29.5321 31.232V32.512C29.5321 33.2053 29.7028 33.7333 30.0441 34.096C30.3855 34.448 30.8495 34.624 31.4361 34.624ZM36.8219 36V27.744H38.5179V28.88H38.6139C38.7419 28.5173 38.9232 28.208 39.1579 27.952C39.4032 27.6853 39.7446 27.552 40.1819 27.552C40.5979 27.552 40.9286 27.6747 41.1739 27.92C41.4192 28.1547 41.5792 28.4907 41.6539 28.928H41.7339C41.8726 28.5547 42.0752 28.2347 42.3419 27.968C42.6192 27.6907 43.0086 27.552 43.5099 27.552C44.1179 27.552 44.5552 27.7707 44.8219 28.208C45.0886 28.6453 45.2219 29.2907 45.2219 30.144V36H43.5419V30.384C43.5419 29.904 43.4726 29.568 43.3339 29.376C43.2059 29.184 43.0086 29.088 42.7419 29.088C42.4966 29.088 42.2886 29.168 42.1179 29.328C41.9579 29.488 41.8779 29.7333 41.8779 30.064V36H40.1819V30.384C40.1819 29.904 40.1179 29.568 39.9899 29.376C39.8619 29.184 39.6646 29.088 39.3979 29.088C39.1419 29.088 38.9286 29.168 38.7579 29.328C38.5979 29.488 38.5179 29.7333 38.5179 30.064V36H36.8219ZM46.9276 24.16H48.9756V29.2H49.0876C49.3116 28.6987 49.6156 28.2987 49.9996 28C50.3943 27.7013 50.9116 27.552 51.5516 27.552C52.021 27.552 52.4476 27.6427 52.8316 27.824C53.2263 27.9947 53.5623 28.2613 53.8396 28.624C54.117 28.976 54.3303 29.424 54.4796 29.968C54.629 30.512 54.7036 31.1467 54.7036 31.872C54.7036 32.5973 54.629 33.232 54.4796 33.776C54.3303 34.32 54.117 34.7733 53.8396 35.136C53.5623 35.488 53.2263 35.7547 52.8316 35.936C52.4476 36.1067 52.021 36.192 51.5516 36.192C50.9116 36.192 50.3943 36.0427 49.9996 35.744C49.6156 35.4453 49.3116 35.0453 49.0876 34.544H48.9756V36H46.9276V24.16ZM50.6876 34.56C51.285 34.56 51.7436 34.3787 52.0636 34.016C52.3943 33.6533 52.5596 33.1573 52.5596 32.528V31.216C52.5596 30.5867 52.3943 30.0907 52.0636 29.728C51.7436 29.3653 51.285 29.184 50.6876 29.184C50.2183 29.184 49.813 29.3013 49.4716 29.536C49.141 29.76 48.9756 30.1067 48.9756 30.576V33.168C48.9756 33.6373 49.141 33.9893 49.4716 34.224C49.813 34.448 50.2183 34.56 50.6876 34.56ZM56.6174 34.384H58.6654V29.36H56.6174V27.744H60.7134V30H60.8414C60.9161 29.712 61.0174 29.4347 61.1454 29.168C61.2841 28.8907 61.4547 28.6507 61.6574 28.448C61.8707 28.2347 62.1267 28.064 62.4254 27.936C62.7241 27.808 63.0814 27.744 63.4974 27.744H64.3934V29.664H62.6974C62.0787 29.664 61.5934 29.8453 61.2414 30.208C60.8894 30.5707 60.7134 31.0347 60.7134 31.6V34.384H63.5774V36H56.6174V34.384ZM70.0031 36.192C69.3418 36.192 68.7551 36.0907 68.2431 35.888C67.7311 35.6853 67.2991 35.3973 66.9471 35.024C66.6058 34.6507 66.3445 34.2027 66.1631 33.68C65.9818 33.1467 65.8911 32.5493 65.8911 31.888C65.8911 31.216 65.9818 30.6133 66.1631 30.08C66.3551 29.5467 66.6218 29.0933 66.9631 28.72C67.3045 28.3467 67.7151 28.0587 68.1951 27.856C68.6858 27.6533 69.2351 27.552 69.8431 27.552C70.4405 27.552 70.9791 27.6533 71.4591 27.856C71.9391 28.048 72.3445 28.3253 72.6751 28.688C73.0165 29.0507 73.2778 29.488 73.4591 30C73.6405 30.512 73.7311 31.0773 73.7311 31.696V32.368H67.9391V32.576C67.9391 33.1733 68.1258 33.6587 68.4991 34.032C68.8725 34.3947 69.3951 34.576 70.0671 34.576C70.5791 34.576 71.0165 34.4747 71.3791 34.272C71.7525 34.0587 72.0618 33.7813 72.3071 33.44L73.4751 34.608C73.1765 35.0453 72.7391 35.4187 72.1631 35.728C71.5978 36.0373 70.8778 36.192 70.0031 36.192ZM69.8591 29.056C69.2831 29.056 68.8191 29.2373 68.4671 29.6C68.1151 29.9627 67.9391 30.4427 67.9391 31.04V31.152H71.6831V31.008C71.6831 30.4107 71.5178 29.936 71.1871 29.584C70.8671 29.232 70.4245 29.056 69.8591 29.056ZM79.4049 36.176C78.8502 36.176 78.4556 36.0587 78.2209 35.824C77.9862 35.5893 77.8689 35.3013 77.8689 34.96V34.48C77.8689 34.1387 77.9862 33.8507 78.2209 33.616C78.4556 33.3813 78.8502 33.264 79.4049 33.264C79.9596 33.264 80.3542 33.3813 80.5889 33.616C80.8236 33.8507 80.9409 34.1387 80.9409 34.48V34.96C80.9409 35.3013 80.8236 35.5893 80.5889 35.824C80.3542 36.0587 79.9596 36.176 79.4049 36.176ZM88.9986 36.176C88.444 36.176 88.0493 36.0587 87.8146 35.824C87.58 35.5893 87.4626 35.3013 87.4626 34.96V34.48C87.4626 34.1387 87.58 33.8507 87.8146 33.616C88.0493 33.3813 88.444 33.264 88.9986 33.264C89.5533 33.264 89.948 33.3813 90.1826 33.616C90.4173 33.8507 90.5346 34.1387 90.5346 34.48V34.96C90.5346 35.3013 90.4173 35.5893 90.1826 35.824C89.948 36.0587 89.5533 36.176 88.9986 36.176ZM98.5924 36.176C98.0377 36.176 97.6431 36.0587 97.4084 35.824C97.1737 35.5893 97.0564 35.3013 97.0564 34.96V34.48C97.0564 34.1387 97.1737 33.8507 97.4084 33.616C97.6431 33.3813 98.0377 33.264 98.5924 33.264C99.1471 33.264 99.5417 33.3813 99.7764 33.616C100.011 33.8507 100.128 34.1387 100.128 34.48V34.96C100.128 35.3013 100.011 35.5893 99.7764 35.824C99.5417 36.0587 99.1471 36.176 98.5924 36.176Z" fill="#03318C"/>
</svg>
