<svg width="392" height="58" viewBox="0 0 392 58" fill="none" xmlns="http://www.w3.org/2000/svg">
<path d="M1.5 29C1.5 13.8122 13.8122 1.5 29 1.5H363C378.188 1.5 390.5 13.8122 390.5 29C390.5 44.1878 378.188 56.5 363 56.5H29C13.8122 56.5 1.5 44.1878 1.5 29Z" fill="white" stroke="#03318C" stroke-width="3"/>
<path d="M15.2578 27.744H17.3058V29.2H17.4178C17.6418 28.6987 17.9458 28.2987 18.3298 28C18.7245 27.7013 19.2418 27.552 19.8818 27.552C20.3511 27.552 20.7778 27.6427 21.1618 27.824C21.5565 27.9947 21.8925 28.2613 22.1698 28.624C22.4471 28.976 22.6605 29.424 22.8098 29.968C22.9591 30.512 23.0338 31.1467 23.0338 31.872C23.0338 32.5973 22.9591 33.232 22.8098 33.776C22.6605 34.32 22.4471 34.7733 22.1698 35.136C21.8925 35.488 21.5565 35.7547 21.1618 35.936C20.7778 36.1067 20.3511 36.192 19.8818 36.192C19.2418 36.192 18.7245 36.0427 18.3298 35.744C17.9458 35.4453 17.6418 35.0453 17.4178 34.544H17.3058V39.2H15.2578V27.744ZM19.0178 34.56C19.6151 34.56 20.0738 34.3787 20.3938 34.016C20.7245 33.6533 20.8898 33.1573 20.8898 32.528V31.216C20.8898 30.5867 20.7245 30.0907 20.3938 29.728C20.0738 29.3653 19.6151 29.184 19.0178 29.184C18.5485 29.184 18.1431 29.3013 17.8018 29.536C17.4711 29.76 17.3058 30.1067 17.3058 30.576V33.168C17.3058 33.6373 17.4711 33.9893 17.8018 34.224C18.1431 34.448 18.5485 34.56 19.0178 34.56ZM24.9476 34.384H26.9956V29.36H24.9476V27.744H29.0436V30H29.1716C29.2462 29.712 29.3476 29.4347 29.4756 29.168C29.6142 28.8907 29.7849 28.6507 29.9876 28.448C30.2009 28.2347 30.4569 28.064 30.7556 27.936C31.0542 27.808 31.4116 27.744 31.8276 27.744H32.7236V29.664H31.0276C30.4089 29.664 29.9236 29.8453 29.5716 30.208C29.2196 30.5707 29.0436 31.0347 29.0436 31.6V34.384H31.9076V36H24.9476V34.384ZM38.3333 36.192C37.672 36.192 37.0853 36.0907 36.5733 35.888C36.0613 35.6853 35.6293 35.3973 35.2773 35.024C34.936 34.6507 34.6746 34.2027 34.4933 33.68C34.312 33.1467 34.2213 32.5493 34.2213 31.888C34.2213 31.216 34.312 30.6133 34.4933 30.08C34.6853 29.5467 34.952 29.0933 35.2933 28.72C35.6346 28.3467 36.0453 28.0587 36.5253 27.856C37.016 27.6533 37.5653 27.552 38.1733 27.552C38.7706 27.552 39.3093 27.6533 39.7893 27.856C40.2693 28.048 40.6746 28.3253 41.0053 28.688C41.3466 29.0507 41.608 29.488 41.7893 30C41.9706 30.512 42.0613 31.0773 42.0613 31.696V32.368H36.2693V32.576C36.2693 33.1733 36.456 33.6587 36.8293 34.032C37.2026 34.3947 37.7253 34.576 38.3973 34.576C38.9093 34.576 39.3466 34.4747 39.7093 34.272C40.0826 34.0587 40.392 33.7813 40.6373 33.44L41.8053 34.608C41.5066 35.0453 41.0693 35.4187 40.4933 35.728C39.928 36.0373 39.208 36.192 38.3333 36.192ZM38.1893 29.056C37.6133 29.056 37.1493 29.2373 36.7973 29.6C36.4453 29.9627 36.2693 30.4427 36.2693 31.04V31.152H40.0133V31.008C40.0133 30.4107 39.848 29.936 39.5173 29.584C39.1973 29.232 38.7546 29.056 38.1893 29.056ZM48.0551 36.192C47.4257 36.192 46.8604 36.0907 46.3591 35.888C45.8577 35.6853 45.4311 35.3973 45.0791 35.024C44.7377 34.6507 44.4711 34.1973 44.2791 33.664C44.0977 33.1307 44.0071 32.5333 44.0071 31.872C44.0071 31.2107 44.0977 30.6133 44.2791 30.08C44.4711 29.5467 44.7377 29.0933 45.0791 28.72C45.4311 28.3467 45.8524 28.0587 46.3431 27.856C46.8444 27.6533 47.4097 27.552 48.0391 27.552C48.9137 27.552 49.6177 27.7333 50.1511 28.096C50.6844 28.4587 51.0897 28.9387 51.3671 29.536L49.7831 30.4C49.6337 30.048 49.4204 29.7653 49.1431 29.552C48.8764 29.328 48.5084 29.216 48.0391 29.216C47.4311 29.216 46.9617 29.392 46.6311 29.744C46.3111 30.096 46.1511 30.576 46.1511 31.184V32.56C46.1511 33.1573 46.3111 33.6373 46.6311 34C46.9617 34.352 47.4417 34.528 48.0711 34.528C48.5617 34.528 48.9511 34.416 49.2391 34.192C49.5377 33.968 49.7777 33.6693 49.9591 33.296L51.4951 34.208C51.2177 34.7947 50.7964 35.2747 50.2311 35.648C49.6764 36.0107 48.9511 36.192 48.0551 36.192ZM57.8408 26.464C57.3608 26.464 57.0195 26.3627 56.8168 26.16C56.6248 25.9573 56.5288 25.712 56.5288 25.424V25.04C56.5288 24.752 56.6248 24.5067 56.8168 24.304C57.0195 24.1013 57.3608 24 57.8408 24C58.3208 24 58.6568 24.1013 58.8488 24.304C59.0515 24.5067 59.1528 24.752 59.1528 25.04V25.424C59.1528 25.712 59.0515 25.9573 58.8488 26.16C58.6568 26.3627 58.3208 26.464 57.8408 26.464ZM54.0968 34.384H56.8168V29.36H54.0968V27.744H58.8648V34.384H61.3928V36H54.0968V34.384ZM66.9226 36.192C66.2932 36.192 65.7279 36.0907 65.2266 35.888C64.7359 35.6853 64.3146 35.3973 63.9626 35.024C63.6212 34.6507 63.3546 34.1973 63.1626 33.664C62.9812 33.1307 62.8906 32.5333 62.8906 31.872C62.8906 31.2107 62.9812 30.6133 63.1626 30.08C63.3546 29.5467 63.6212 29.0933 63.9626 28.72C64.3146 28.3467 64.7359 28.0587 65.2266 27.856C65.7279 27.6533 66.2932 27.552 66.9226 27.552C67.5412 27.552 68.1012 27.6533 68.6026 27.856C69.1039 28.0587 69.5252 28.3467 69.8666 28.72C70.2186 29.0933 70.4852 29.5467 70.6666 30.08C70.8586 30.6133 70.9546 31.2107 70.9546 31.872C70.9546 32.5333 70.8586 33.1307 70.6666 33.664C70.4852 34.1973 70.2186 34.6507 69.8666 35.024C69.5252 35.3973 69.1039 35.6853 68.6026 35.888C68.1012 36.0907 67.5412 36.192 66.9226 36.192ZM66.9226 34.624C67.5092 34.624 67.9732 34.448 68.3146 34.096C68.6559 33.7333 68.8266 33.2053 68.8266 32.512V31.232C68.8266 30.5387 68.6559 30.016 68.3146 29.664C67.9732 29.3013 67.5092 29.12 66.9226 29.12C66.3359 29.12 65.8719 29.3013 65.5306 29.664C65.1892 30.016 65.0186 30.5387 65.0186 31.232V32.512C65.0186 33.2053 65.1892 33.7333 65.5306 34.096C65.8719 34.448 66.3359 34.624 66.9226 34.624ZM76.5163 36.176C75.9616 36.176 75.567 36.0587 75.3323 35.824C75.0976 35.5893 74.9803 35.3013 74.9803 34.96V34.48C74.9803 34.1387 75.0976 33.8507 75.3323 33.616C75.567 33.3813 75.9616 33.264 76.5163 33.264C77.071 33.264 77.4656 33.3813 77.7003 33.616C77.935 33.8507 78.0523 34.1387 78.0523 34.48V34.96C78.0523 35.3013 77.935 35.5893 77.7003 35.824C77.4656 36.0587 77.071 36.176 76.5163 36.176ZM86.1101 36.176C85.5554 36.176 85.1607 36.0587 84.9261 35.824C84.6914 35.5893 84.5741 35.3013 84.5741 34.96V34.48C84.5741 34.1387 84.6914 33.8507 84.9261 33.616C85.1607 33.3813 85.5554 33.264 86.1101 33.264C86.6647 33.264 87.0594 33.3813 87.2941 33.616C87.5287 33.8507 87.6461 34.1387 87.6461 34.48V34.96C87.6461 35.3013 87.5287 35.5893 87.2941 35.824C87.0594 36.0587 86.6647 36.176 86.1101 36.176ZM95.7038 36.176C95.1491 36.176 94.7545 36.0587 94.5198 35.824C94.2851 35.5893 94.1678 35.3013 94.1678 34.96V34.48C94.1678 34.1387 94.2851 33.8507 94.5198 33.616C94.7545 33.3813 95.1491 33.264 95.7038 33.264C96.2585 33.264 96.6531 33.3813 96.8878 33.616C97.1225 33.8507 97.2398 34.1387 97.2398 34.48V34.96C97.2398 35.3013 97.1225 35.5893 96.8878 35.824C96.6531 36.0587 96.2585 36.176 95.7038 36.176Z" fill="#03318C"/>
</svg>
