<svg width="188" height="55" viewBox="0 0 188 55" fill="none" xmlns="http://www.w3.org/2000/svg">
<rect width="188" height="55" rx="15" fill="#03318C"/>
<path d="M59.7434 35V21.04H68.4834V22.92H61.9834V26.98H68.2434V28.86H61.9834V33.12H68.4834V35H59.7434ZM71.6956 35V24.68H73.8756V26.44H73.9756C74.0823 26.1733 74.2156 25.92 74.3756 25.68C74.549 25.4267 74.7556 25.2133 74.9956 25.04C75.2356 24.8533 75.5156 24.7067 75.8356 24.6C76.1556 24.4933 76.529 24.44 76.9556 24.44C77.9956 24.44 78.8356 24.78 79.4756 25.46C80.1156 26.14 80.4356 27.1067 80.4356 28.36V35H78.2556V28.68C78.2556 27.04 77.5423 26.22 76.1156 26.22C75.8356 26.22 75.5623 26.26 75.2956 26.34C75.029 26.4067 74.789 26.5133 74.5756 26.66C74.3623 26.8067 74.189 26.9933 74.0556 27.22C73.9356 27.4467 73.8756 27.7067 73.8756 28V35H71.6956ZM86.6678 35L82.9678 24.68H85.2278L86.6478 29.04L87.9878 33.18H88.1078L89.4478 29.04L90.8678 24.68H93.0478L89.3478 35H86.6678ZM100.64 22.8C100.08 22.8 99.6867 22.6867 99.46 22.46C99.2467 22.2333 99.14 21.9533 99.14 21.62V21.2C99.14 20.8667 99.2467 20.5867 99.46 20.36C99.6867 20.1333 100.073 20.02 100.62 20.02C101.18 20.02 101.567 20.1333 101.78 20.36C102.007 20.5867 102.12 20.8667 102.12 21.2V21.62C102.12 21.9533 102.007 22.2333 101.78 22.46C101.567 22.6867 101.187 22.8 100.64 22.8ZM96.02 33.24H99.54V26.44H96.02V24.68H101.72V33.24H105.02V35H96.02V33.24ZM115.832 35C115.206 35 114.732 34.84 114.412 34.52C114.106 34.2 113.919 33.78 113.852 33.26H113.752C113.552 33.8867 113.186 34.3733 112.652 34.72C112.132 35.0667 111.466 35.24 110.652 35.24C109.599 35.24 108.759 34.9667 108.132 34.42C107.506 33.86 107.192 33.0933 107.192 32.12C107.192 31.12 107.559 30.36 108.292 29.84C109.039 29.3067 110.179 29.04 111.712 29.04H113.692V28.24C113.692 26.84 112.952 26.14 111.472 26.14C110.806 26.14 110.266 26.2733 109.852 26.54C109.439 26.7933 109.092 27.1333 108.812 27.56L107.512 26.5C107.806 25.94 108.299 25.46 108.992 25.06C109.686 24.6467 110.579 24.44 111.672 24.44C112.979 24.44 114.006 24.7533 114.752 25.38C115.499 26.0067 115.872 26.9133 115.872 28.1V33.28H117.172V35H115.832ZM111.272 33.64C111.979 33.64 112.559 33.48 113.012 33.16C113.466 32.84 113.692 32.4267 113.692 31.92V30.42H111.752C110.179 30.42 109.392 30.8933 109.392 31.84V32.24C109.392 32.7067 109.559 33.06 109.892 33.3C110.226 33.5267 110.686 33.64 111.272 33.64ZM119.504 33.24H122.244V26.44H119.504V24.68H124.424V27.42H124.544C124.638 27.06 124.771 26.7133 124.944 26.38C125.118 26.0467 125.338 25.76 125.604 25.52C125.871 25.2667 126.198 25.0667 126.584 24.92C126.971 24.76 127.424 24.68 127.944 24.68H129.184V26.76H127.144C126.344 26.76 125.691 27 125.184 27.48C124.678 27.9467 124.424 28.58 124.424 29.38V33.24H128.164V35H119.504V33.24Z" fill="white"/>
</svg>
