<svg width="188" height="55" viewBox="0 0 188 55" fill="none" xmlns="http://www.w3.org/2000/svg">
<rect width="188" height="55" rx="15" fill="white"/>
<rect x="1.5" y="1.5" width="185" height="52" rx="13.5" stroke="#03318C" stroke-width="3"/>
<path d="M54.1873 35V21.04H56.4273V33.12H62.7873V35H54.1873ZM70.6595 22.8C70.0995 22.8 69.7062 22.6867 69.4795 22.46C69.2662 22.2333 69.1595 21.9533 69.1595 21.62V21.2C69.1595 20.8667 69.2662 20.5867 69.4795 20.36C69.7062 20.1333 70.0929 20.02 70.6395 20.02C71.1995 20.02 71.5862 20.1333 71.7995 20.36C72.0262 20.5867 72.1395 20.8667 72.1395 21.2V21.62C72.1395 21.9533 72.0262 22.2333 71.7995 22.46C71.5862 22.6867 71.2062 22.8 70.6595 22.8ZM66.0395 33.24H69.5595V26.44H66.0395V24.68H71.7395V33.24H75.0395V35H66.0395V33.24ZM76.8917 35V24.68H78.7517V26.02H78.8517C79.0117 25.58 79.2384 25.2067 79.5317 24.9C79.8384 24.5933 80.2717 24.44 80.8317 24.44C81.3784 24.44 81.7984 24.5933 82.0917 24.9C82.3984 25.1933 82.5917 25.6 82.6717 26.12H82.7517C82.9384 25.6533 83.1984 25.26 83.5317 24.94C83.8651 24.6067 84.3451 24.44 84.9717 24.44C85.7717 24.44 86.3251 24.72 86.6317 25.28C86.9517 25.84 87.1117 26.66 87.1117 27.74V35H85.2517V28.02C85.2517 27.3 85.1651 26.8067 84.9917 26.54C84.8184 26.26 84.5384 26.12 84.1517 26.12C83.8051 26.12 83.5117 26.24 83.2717 26.48C83.0451 26.7067 82.9317 27.0533 82.9317 27.52V35H81.0717V28.02C81.0717 27.3 80.9851 26.8067 80.8117 26.54C80.6517 26.26 80.3784 26.12 79.9917 26.12C79.6317 26.12 79.3317 26.24 79.0917 26.48C78.8651 26.7067 78.7517 27.0533 78.7517 27.52V35H76.8917ZM89.5839 24.68H91.7639V26.44H91.8839C92.1906 25.8133 92.5972 25.3267 93.1039 24.98C93.6106 24.62 94.2439 24.44 95.0039 24.44C96.2172 24.44 97.1839 24.8933 97.9039 25.8C98.6239 26.7067 98.9839 28.0533 98.9839 29.84C98.9839 31.6267 98.6239 32.9733 97.9039 33.88C97.1839 34.7867 96.2172 35.24 95.0039 35.24C94.2439 35.24 93.6106 35.0667 93.1039 34.72C92.5972 34.36 92.1906 33.8667 91.8839 33.24H91.7639V39H89.5839V24.68ZM94.1039 33.46C94.9306 33.46 95.5639 33.2067 96.0039 32.7C96.4572 32.1933 96.6839 31.52 96.6839 30.68V29C96.6839 28.16 96.4572 27.4867 96.0039 26.98C95.5639 26.4733 94.9306 26.22 94.1039 26.22C93.7839 26.22 93.4839 26.26 93.2039 26.34C92.9239 26.42 92.6772 26.54 92.4639 26.7C92.2506 26.86 92.0772 27.06 91.9439 27.3C91.8239 27.5267 91.7639 27.8 91.7639 28.12V31.56C91.7639 31.88 91.8239 32.16 91.9439 32.4C92.0772 32.6267 92.2506 32.82 92.4639 32.98C92.6772 33.14 92.9239 33.26 93.2039 33.34C93.4839 33.42 93.7839 33.46 94.1039 33.46ZM106.636 22.8C106.076 22.8 105.683 22.6867 105.456 22.46C105.243 22.2333 105.136 21.9533 105.136 21.62V21.2C105.136 20.8667 105.243 20.5867 105.456 20.36C105.683 20.1333 106.069 20.02 106.616 20.02C107.176 20.02 107.563 20.1333 107.776 20.36C108.003 20.5867 108.116 20.8667 108.116 21.2V21.62C108.116 21.9533 108.003 22.2333 107.776 22.46C107.563 22.6867 107.183 22.8 106.636 22.8ZM102.016 33.24H105.536V26.44H102.016V24.68H107.716V33.24H111.016V35H102.016V33.24ZM121.828 35C121.202 35 120.728 34.84 120.408 34.52C120.102 34.2 119.915 33.78 119.848 33.26H119.748C119.548 33.8867 119.182 34.3733 118.648 34.72C118.128 35.0667 117.462 35.24 116.648 35.24C115.595 35.24 114.755 34.9667 114.128 34.42C113.502 33.86 113.188 33.0933 113.188 32.12C113.188 31.12 113.555 30.36 114.288 29.84C115.035 29.3067 116.175 29.04 117.708 29.04H119.688V28.24C119.688 26.84 118.948 26.14 117.468 26.14C116.802 26.14 116.262 26.2733 115.848 26.54C115.435 26.7933 115.088 27.1333 114.808 27.56L113.508 26.5C113.802 25.94 114.295 25.46 114.988 25.06C115.682 24.6467 116.575 24.44 117.668 24.44C118.975 24.44 120.002 24.7533 120.748 25.38C121.495 26.0067 121.868 26.9133 121.868 28.1V33.28H123.168V35H121.828ZM117.268 33.64C117.975 33.64 118.555 33.48 119.008 33.16C119.462 32.84 119.688 32.4267 119.688 31.92V30.42H117.748C116.175 30.42 115.388 30.8933 115.388 31.84V32.24C115.388 32.7067 115.555 33.06 115.888 33.3C116.222 33.5267 116.682 33.64 117.268 33.64ZM125.5 33.24H128.24V26.44H125.5V24.68H130.42V27.42H130.54C130.634 27.06 130.767 26.7133 130.94 26.38C131.114 26.0467 131.334 25.76 131.6 25.52C131.867 25.2667 132.194 25.0667 132.58 24.92C132.967 24.76 133.42 24.68 133.94 24.68H135.18V26.76H133.14C132.34 26.76 131.687 27 131.18 27.48C130.674 27.9467 130.42 28.58 130.42 29.38V33.24H134.16V35H125.5V33.24Z" fill="#03318C"/>
</svg>
